<?xml version="1.0" standalone="no"?>
<!DOCTYPE svg PUBLIC "-//W3C//DTD SVG 20010904//EN"
 "http://www.w3.org/TR/2001/REC-SVG-20010904/DTD/svg10.dtd">
<svg version="1.0" xmlns="http://www.w3.org/2000/svg"
 width="3000.000000pt" height="937.000000pt" viewBox="0 0 3000.000000 937.000000"
 preserveAspectRatio="xMidYMid meet">

<g transform="translate(0.000000,937.000000) scale(0.100000,-0.100000)"
fill="#000000" stroke="none">
<path d="M760 7003 c0 -1279 4 -2082 10 -2173 15 -211 44 -396 101 -645 76
-330 149 -555 269 -830 188 -431 469 -880 807 -1293 102 -124 389 -437 460
-502 21 -19 88 -80 149 -135 487 -442 988 -759 1515 -960 144 -55 131 -56 327
21 1287 507 2557 1865 3012 3223 58 174 81 255 139 501 36 156 55 258 78 430
17 126 18 269 18 2260 l0 2125 -3442 3 -3443 2 0 -2027z m3335 47 l0 -1765
-1557 -3 c-1243 -2 -1558 0 -1558 10 -1 10 0 3510 0 3526 0 1 701 1 1558 0
l1557 -3 0 -1765z m3340 0 l0 -1765 -1560 0 -1560 0 -3 1755 c-1 965 0 1761 3
1768 3 10 321 12 1562 10 l1558 -3 0 -1765z m-3337 -4172 c1 -1544 -1 -2188
-9 -2188 -21 0 -228 93 -374 169 -827 426 -1637 1226 -2146 2116 -173 302
-330 663 -412 945 -67 229 -128 507 -153 695 -15 116 -34 432 -26 448 2 4 704
6 1560 5 l1557 -3 3 -2187z m3340 2122 c8 -148 -32 -463 -93 -739 -125 -568
-338 -1058 -691 -1593 -459 -696 -1107 -1319 -1776 -1711 -176 -103 -519 -267
-558 -267 -11 0 -14 4362 -3 4373 3 4 707 6 1562 5 l1556 -3 3 -65z"/>
<path d="M1920 8159 c-41 -5 -122 -17 -180 -27 l-105 -17 -3 -1057 c-2 -1000
-1 -1057 15 -1062 79 -22 312 -40 528 -40 214 -1 252 2 345 22 378 83 638 271
790 572 77 152 110 303 110 500 0 205 -43 377 -138 550 -36 64 -73 111 -157
196 -186 190 -366 286 -645 349 -89 20 -443 29 -560 14z m457 -218 c160 -31
262 -76 398 -176 167 -123 273 -278 328 -480 18 -67 22 -106 22 -245 0 -195
-11 -245 -85 -395 -87 -176 -202 -286 -395 -380 -128 -62 -213 -85 -345 -94
-99 -6 -287 1 -352 14 l-38 7 0 869 0 869 23 5 c112 28 317 31 444 6z"/>
<path d="M5770 8099 c-75 -35 -788 -353 -1055 -471 -137 -61 -253 -114 -258
-118 -4 -3 77 -44 180 -90 104 -46 296 -132 428 -190 132 -59 348 -155 480
-215 132 -59 252 -111 266 -117 23 -8 93 21 525 212 275 122 511 227 526 235
15 7 29 10 32 7 3 -3 6 -58 6 -123 l0 -118 -29 -15 c-67 -35 -108 -118 -92
-189 11 -44 53 -103 81 -112 11 -3 20 -12 20 -19 0 -11 -12 -96 -53 -386 -2
-12 18 -15 116 -18 139 -3 127 -29 92 213 -14 94 -25 177 -25 185 0 8 16 26
34 40 49 36 66 70 66 132 0 65 -23 107 -80 144 l-40 27 0 146 0 146 107 47
c59 26 109 51 110 55 1 4 -102 54 -230 110 -128 57 -434 193 -681 303 -247
110 -456 200 -465 200 -9 0 -36 -10 -61 -21z"/>
<path d="M5108 7058 c-30 -46 -50 -125 -55 -214 l-6 -91 79 -8 c154 -14 320
-73 440 -156 71 -49 181 -157 221 -216 19 -29 38 -53 42 -53 4 0 25 25 45 55
94 136 272 266 443 324 68 23 210 51 260 51 l36 0 -5 108 c-4 89 -9 117 -31
166 -21 45 -31 57 -44 53 -10 -2 -172 -73 -360 -156 l-343 -152 -77 35 c-43
19 -199 89 -348 155 -148 67 -273 121 -276 121 -4 0 -13 -10 -21 -22z"/>
<path d="M3160 4441 c-62 -19 -107 -55 -285 -231 -128 -126 -205 -194 -236
-209 -60 -28 -302 -272 -328 -331 -13 -29 -94 -118 -255 -280 -146 -147 -242
-252 -251 -274 -21 -50 -19 -139 4 -184 26 -49 175 -195 227 -222 85 -43 209
-43 294 0 19 10 125 108 235 219 184 184 241 231 285 231 6 0 10 -53 10 -134
0 -105 3 -136 15 -146 18 -15 27 -9 93 62 30 32 59 58 65 58 6 0 41 -29 78
-65 45 -44 72 -63 83 -59 14 5 16 42 18 308 1 165 2 322 2 349 l1 47 204 204
c230 230 251 260 259 371 5 85 -8 138 -51 201 -47 70 -58 74 -102 36 -38 -34
-40 -34 -91 5 -17 12 -50 29 -73 38 -45 16 -158 19 -201 6z m214 -90 c27 -14
52 -32 54 -39 4 -13 -375 -402 -392 -402 -9 0 -105 43 -141 63 -11 6 -39 21
-63 33 l-43 21 145 146 c79 80 162 157 184 172 76 50 170 53 256 6z m216 -73
c12 -27 20 -66 20 -104 0 -98 -25 -134 -238 -347 l-189 -189 -28 54 c-15 29
-39 75 -52 102 l-25 49 238 238 c132 132 242 239 247 239 4 0 17 -19 27 -42z
m-629 -411 c41 -27 79 -98 79 -148 0 -43 -32 -94 -79 -126 -47 -32 -135 -32
-181 0 -69 46 -94 142 -56 215 41 79 162 109 237 59z m-363 -128 c17 -6 33
-18 36 -27 2 -10 7 -30 11 -46 3 -17 15 -42 26 -58 12 -16 19 -33 17 -38 -2
-5 -88 -97 -193 -205 -104 -108 -191 -202 -193 -208 -1 -7 16 -30 38 -52 22
-21 40 -44 40 -50 0 -6 -11 -22 -24 -34 l-24 -22 -97 100 c-88 90 -131 122
-199 145 -17 6 21 48 229 256 265 266 263 264 333 239z m188 -228 c16 -5 41
-12 56 -15 34 -8 58 -51 58 -103 0 -36 -10 -48 -200 -238 -160 -160 -202 -197
-210 -185 -5 8 -10 23 -10 33 0 24 -26 73 -63 120 l-30 39 179 179 c98 98 182
179 185 179 3 0 19 -4 35 -9z m-721 -355 c19 -8 35 -18 35 -22 0 -4 -25 -33
-55 -65 -30 -32 -55 -62 -55 -67 0 -6 35 -44 78 -86 120 -118 163 -120 273
-10 72 71 87 72 69 2 -26 -98 -114 -158 -230 -158 -89 0 -147 30 -237 123 -89
91 -105 136 -76 206 33 81 114 112 198 77z"/>
<path d="M4935 4338 c-4 -16 -205 -1637 -205 -1661 0 -15 11 -17 94 -17 l94 0
7 63 c3 34 17 154 31 267 13 113 40 338 59 500 46 394 56 460 65 460 4 0 16
-24 28 -52 41 -107 224 -582 340 -888 67 -173 124 -323 128 -333 6 -16 18 -17
108 -15 l101 3 22 60 c12 33 67 183 123 334 55 150 111 303 124 340 85 238
179 487 186 494 10 11 15 -16 35 -183 53 -458 116 -980 121 -1012 l6 -38 105
0 105 0 -6 48 c-3 26 -17 135 -31 242 -14 107 -57 452 -95 765 -38 314 -72
585 -75 603 l-6 32 -98 0 -98 0 -228 -607 c-277 -739 -289 -769 -301 -764 -5
3 -31 61 -57 130 -26 69 -63 167 -82 216 -19 50 -50 131 -68 180 -38 98 -68
178 -214 565 -53 140 -100 261 -106 268 -6 8 -41 12 -109 12 -70 0 -100 -4
-103 -12z"/>
<path d="M13046 6364 c-14 -14 -16 -96 -16 -757 0 -419 5 -783 10 -836 22
-210 75 -292 219 -341 52 -17 82 -20 178 -18 l117 3 13 80 c21 122 23 119 -78
126 -100 7 -142 26 -174 79 -20 34 -20 53 -25 848 -4 708 -7 814 -20 822 -8 5
-59 10 -112 10 -75 0 -100 -4 -112 -16z"/>
<path d="M18068 6373 c-17 -4 -18 -52 -18 -817 0 -783 1 -816 20 -892 32 -125
89 -194 192 -232 38 -14 307 -32 308 -20 1 1 7 44 14 93 10 62 11 94 4 103 -7
7 -36 12 -78 12 -75 0 -125 16 -156 52 -50 57 -48 28 -52 888 -3 604 -6 807
-15 812 -13 8 -190 9 -219 1z"/>
<path d="M9731 6282 c-7 -13 -11 -310 -11 -930 0 -818 1 -912 16 -926 13 -14
62 -16 398 -16 417 0 564 12 685 54 199 70 293 206 307 446 14 224 -74 405
-232 480 -35 17 -64 33 -64 35 0 2 19 14 43 28 126 75 183 228 158 423 -20
155 -49 223 -124 290 -59 53 -114 79 -227 106 -77 18 -126 21 -512 25 -417 5
-426 5 -437 -15z m909 -224 c94 -47 123 -111 124 -273 0 -101 -15 -155 -56
-207 -27 -32 -99 -61 -176 -69 -91 -9 -493 -12 -516 -3 -14 5 -16 41 -16 296
l0 290 293 -4 292 -3 55 -27z m-28 -752 c36 -8 80 -22 97 -30 43 -23 96 -80
123 -134 20 -42 23 -61 23 -177 0 -114 -3 -136 -23 -180 -40 -86 -84 -119
-199 -149 -49 -13 -119 -16 -347 -16 l-286 0 0 350 0 350 273 0 c196 0 291 -4
339 -14z"/>
<path d="M20293 6293 c-9 -3 -13 -33 -13 -99 l0 -94 164 0 c90 0 171 -3 180
-6 14 -6 16 -80 16 -740 l0 -734 -164 0 c-90 0 -171 -3 -180 -6 -13 -5 -16
-23 -16 -93 0 -54 5 -92 12 -99 17 -17 949 -17 966 0 7 7 12 43 12 93 0 50 -5
86 -12 93 -8 8 -63 12 -180 12 l-168 0 0 735 c0 404 1 736 3 737 1 1 81 4 177
7 l175 6 3 83 c2 53 -1 89 -9 98 -10 12 -90 14 -483 13 -259 0 -477 -3 -483
-6z"/>
<path d="M25746 6292 c-3 -5 -6 -62 -7 -128 l-1 -119 126 -3 126 -3 0 125 c0
104 -3 125 -16 130 -24 9 -222 7 -228 -2z"/>
<path d="M15586 6208 c-6 -21 -26 -269 -26 -325 0 -85 2 -83 -120 -83 -71 0
-111 -4 -116 -11 -12 -19 -4 -173 9 -181 7 -4 56 -8 110 -8 l97 0 0 -422 c0
-447 5 -500 49 -586 20 -39 67 -87 113 -115 70 -43 203 -69 333 -65 l99 3 13
95 c10 74 10 96 0 102 -6 4 -42 8 -79 8 -66 0 -157 18 -197 39 -11 6 -30 26
-43 43 l-23 33 -3 415 c-2 228 -1 424 2 435 5 19 12 20 148 17 201 -4 189 -11
186 101 l-3 92 -165 5 -165 5 -5 205 -5 205 -103 3 c-77 2 -103 -1 -106 -10z"/>
<path d="M24755 6208 c-3 -7 -11 -97 -19 -199 -7 -103 -17 -192 -20 -198 -5
-7 -45 -11 -110 -11 -66 0 -106 -4 -114 -12 -7 -7 -12 -43 -12 -90 0 -96 3
-98 134 -98 l96 0 0 -422 c0 -457 5 -509 55 -593 69 -117 222 -178 433 -173
l107 3 12 95 c8 72 8 97 0 102 -7 4 -41 8 -77 8 -80 0 -174 22 -209 47 -14 11
-34 36 -44 56 -16 34 -17 73 -15 458 l3 421 155 -1 c85 -1 161 3 168 7 9 6 12
33 10 98 l-3 89 -167 3 -168 2 -2 208 -3 207 -103 3 c-76 2 -104 -1 -107 -10z"/>
<path d="M26615 6208 c-2 -7 -10 -101 -17 -208 l-13 -195 -115 -5 -115 -5 -3
-92 c-1 -51 -1 -94 0 -94 2 -1 52 -4 111 -8 l108 -6 3 -440 c3 -430 3 -442 26
-507 12 -37 38 -85 57 -107 42 -49 134 -96 228 -115 58 -12 200 -21 266 -17
13 1 19 21 29 97 6 53 8 100 3 104 -4 4 -48 10 -98 13 -125 6 -190 30 -224 81
l-26 40 -3 419 c-2 257 1 424 6 429 6 6 75 9 156 9 88 -1 154 2 166 9 17 9 20
21 20 89 0 53 -4 82 -13 90 -8 6 -76 12 -173 13 l-159 3 -5 205 -5 205 -103 3
c-76 2 -103 -1 -107 -10z"/>
<path d="M29296 6211 c-3 -5 -10 -76 -16 -157 -5 -82 -12 -173 -16 -201 l-5
-53 -108 0 c-70 0 -111 -4 -119 -12 -7 -7 -12 -43 -12 -90 0 -96 3 -98 134
-98 l96 0 0 -407 c0 -235 5 -435 11 -472 14 -91 44 -154 94 -200 50 -46 91
-65 195 -91 79 -20 275 -29 290 -14 13 15 30 178 19 190 -5 6 -51 14 -102 17
-113 7 -162 21 -198 56 -47 47 -49 78 -47 512 l3 404 165 6 c91 3 166 6 168 7
1 1 2 42 2 92 0 107 15 99 -190 103 l-145 2 -5 205 -5 205 -102 3 c-56 1 -104
-2 -107 -7z"/>
<path d="M11824 5801 c-152 -37 -247 -109 -307 -230 l-32 -66 -3 -351 c-3
-392 2 -437 60 -546 56 -105 136 -160 288 -199 94 -24 368 -27 472 -5 115 24
205 82 242 157 22 43 48 160 44 194 l-3 30 -104 0 -104 0 -12 -50 c-30 -134
-81 -159 -299 -152 -200 6 -258 30 -305 122 -23 47 -25 60 -25 205 l-1 155
430 5 430 5 3 180 c2 107 -2 204 -8 240 -26 132 -103 220 -250 283 -103 44
-380 56 -516 23z m335 -182 c72 -13 128 -37 151 -65 36 -44 40 -65 40 -184 l0
-120 -311 0 -311 0 3 119 c4 116 5 120 35 158 17 21 46 47 64 57 70 41 208 56
329 35z"/>
<path d="M14270 5809 c-232 -45 -333 -146 -355 -352 -9 -95 -7 -97 125 -97
119 0 120 0 120 68 0 91 48 159 127 181 67 19 194 24 258 11 110 -23 155 -76
155 -183 0 -117 -38 -153 -220 -212 -323 -103 -424 -145 -516 -215 -76 -57
-98 -110 -98 -230 0 -85 4 -102 31 -162 37 -80 99 -144 173 -180 82 -39 127
-48 236 -48 164 0 261 38 358 139 32 34 59 61 60 59 2 -2 14 -23 28 -48 35
-60 74 -96 126 -114 48 -17 179 -24 191 -10 10 12 33 163 25 175 -3 5 -20 9
-37 9 -19 0 -44 10 -62 24 l-30 24 -6 404 c-4 242 -11 422 -18 451 -39 165
-137 263 -302 302 -71 16 -293 19 -369 4z m431 -856 c-2 -180 -3 -189 -26
-225 -54 -81 -177 -138 -317 -146 -80 -4 -93 -2 -143 22 -72 36 -96 71 -102
149 -7 91 21 139 110 187 37 20 100 47 140 60 122 38 223 80 279 115 29 19 55
32 57 29 2 -2 3 -88 2 -191z"/>
<path d="M16855 5804 c-148 -29 -276 -120 -325 -231 -33 -75 -40 -154 -40
-448 1 -387 21 -482 124 -593 98 -105 224 -142 477 -142 204 0 251 8 358 59
82 39 150 166 154 288 l2 48 -80 3 c-44 2 -95 0 -112 -3 -30 -5 -33 -9 -33
-43 0 -53 -37 -113 -85 -137 -81 -40 -368 -30 -444 16 -39 24 -77 76 -90 124
-6 22 -11 104 -11 183 l0 142 423 0 c316 0 426 3 435 12 14 14 15 149 3 330
-7 103 -12 126 -40 182 -54 109 -155 178 -314 210 -94 20 -304 20 -402 0z
m330 -188 c111 -25 156 -56 174 -122 16 -57 15 -244 -1 -245 -26 -1 -89 -1
-345 0 l-263 1 0 105 c0 151 27 204 125 243 79 32 213 40 310 18z"/>
<path d="M22235 5805 c-69 -17 -140 -49 -185 -85 -21 -16 -41 -30 -44 -30 -3
0 -6 19 -6 43 0 24 -5 48 -12 55 -8 8 -49 12 -118 12 -69 0 -110 -4 -118 -12
-9 -9 -12 -174 -12 -683 0 -509 3 -674 12 -683 16 -16 220 -16 236 0 9 9 12
139 12 523 l0 510 23 40 c25 45 99 99 160 117 53 15 229 15 283 0 62 -18 107
-52 132 -102 22 -44 22 -45 22 -561 0 -430 2 -518 14 -528 9 -8 51 -11 122 -9
l109 3 0 565 0 565 -28 53 c-58 111 -145 178 -268 207 -77 18 -262 18 -334 0z"/>
<path d="M23555 5804 c-121 -29 -189 -79 -233 -174 -22 -46 -27 -73 -30 -163
-5 -129 9 -177 72 -245 50 -54 89 -74 286 -147 213 -78 281 -106 311 -127 36
-24 59 -86 59 -155 0 -173 -153 -246 -415 -198 -93 17 -122 25 -189 54 -76 33
-84 28 -113 -63 -29 -94 -29 -95 72 -130 66 -22 91 -29 207 -55 26 -6 110 -11
186 -11 121 0 150 3 211 24 114 39 179 96 229 203 25 53 27 68 27 178 -1 206
-40 274 -204 351 -121 58 -107 52 -290 123 -85 34 -165 71 -178 83 -51 48 -53
169 -3 219 68 68 251 75 460 18 132 -36 129 -37 157 60 29 97 28 99 -54 126
-138 44 -439 60 -568 29z"/>
<path d="M25747 5793 c-4 -3 -7 -313 -7 -689 0 -613 2 -682 16 -688 20 -8 198
-8 218 0 14 6 16 76 16 689 0 613 -2 683 -16 689 -21 8 -219 8 -227 -1z"/>
<path d="M27571 5786 c-9 -11 -11 -153 -9 -558 l3 -543 33 -68 c77 -155 189
-217 410 -225 179 -6 275 24 374 115 26 26 51 44 53 41 3 -3 10 -31 16 -64 6
-32 16 -62 22 -66 20 -13 192 -9 205 4 9 9 12 174 12 679 0 367 -3 674 -6 683
-5 13 -25 16 -118 16 -74 0 -116 -4 -124 -12 -9 -9 -12 -135 -12 -504 0 -270
-3 -506 -6 -523 -8 -36 -75 -111 -124 -136 -148 -77 -369 -51 -447 52 l-28 36
-3 531 c-2 365 -6 534 -13 543 -17 19 -222 18 -238 -1z"/>
<path d="M18924 5243 c-7 -8 -11 -42 -10 -95 l1 -83 458 -3 457 -2 0 95 c0 52
-3 95 -7 95 -5 0 -206 1 -447 3 -333 1 -443 -1 -452 -10z"/>
</g>
</svg>
