<?xml version="1.0" standalone="no"?>
<!DOCTYPE svg PUBLIC "-//W3C//DTD SVG 20010904//EN"
 "http://www.w3.org/TR/2001/REC-SVG-20010904/DTD/svg10.dtd">
<svg version="1.0" xmlns="http://www.w3.org/2000/svg"
 width="1365.000000pt" height="1242.000000pt" viewBox="0 0 1365.000000 1242.000000"
 preserveAspectRatio="xMidYMid meet">

<g transform="translate(0.000000,1242.000000) scale(0.100000,-0.100000)"
fill="#000000" stroke="none">
<path d="M3440 8463 c0 -1279 4 -2082 10 -2173 15 -211 44 -396 101 -645 76
-330 149 -555 269 -830 188 -431 469 -880 807 -1293 102 -124 389 -437 460
-502 21 -19 88 -80 149 -135 487 -442 988 -759 1515 -960 144 -55 131 -56 327
21 1287 507 2557 1865 3012 3223 58 174 81 255 139 501 36 156 55 258 78 430
17 126 18 269 18 2260 l0 2125 -3442 3 -3443 2 0 -2027z m3335 47 l0 -1765
-1557 -3 c-1243 -2 -1558 0 -1558 10 -1 10 0 3510 0 3526 0 1 701 1 1558 0
l1557 -3 0 -1765z m3340 0 l0 -1765 -1560 0 -1560 0 -3 1755 c-1 965 0 1761 3
1768 3 10 321 12 1562 10 l1558 -3 0 -1765z m-3337 -4172 c1 -1544 -1 -2188
-9 -2188 -21 0 -228 93 -374 169 -827 426 -1637 1226 -2146 2116 -173 302
-330 663 -412 945 -67 229 -128 507 -153 695 -15 116 -34 432 -26 448 2 4 704
6 1560 5 l1557 -3 3 -2187z m3340 2122 c8 -148 -32 -463 -93 -739 -125 -568
-338 -1058 -691 -1593 -459 -696 -1107 -1319 -1776 -1711 -176 -103 -519 -267
-558 -267 -11 0 -14 4362 -3 4373 3 4 707 6 1562 5 l1556 -3 3 -65z"/>
<path d="M4600 9619 c-41 -5 -122 -17 -180 -27 l-105 -17 -3 -1057 c-2 -1000
-1 -1057 15 -1062 79 -22 312 -40 528 -40 214 -1 252 2 345 22 378 83 638 271
790 572 77 152 110 303 110 500 0 205 -43 377 -138 550 -36 64 -73 111 -157
196 -186 190 -366 286 -645 349 -89 20 -443 29 -560 14z m457 -218 c160 -31
262 -76 398 -176 167 -123 273 -278 328 -480 18 -67 22 -106 22 -245 0 -195
-11 -245 -85 -395 -87 -176 -202 -286 -395 -380 -128 -62 -213 -85 -345 -94
-99 -6 -287 1 -352 14 l-38 7 0 869 0 869 23 5 c112 28 317 31 444 6z"/>
<path d="M8450 9559 c-75 -35 -788 -353 -1055 -471 -137 -61 -253 -114 -258
-118 -4 -3 77 -44 180 -90 104 -46 296 -132 428 -190 132 -59 348 -155 480
-215 132 -59 252 -111 266 -117 23 -8 93 21 525 212 275 122 511 227 526 235
15 7 29 10 32 7 3 -3 6 -58 6 -123 l0 -118 -29 -15 c-67 -35 -108 -118 -92
-189 11 -44 53 -103 81 -112 11 -3 20 -12 20 -19 0 -11 -12 -96 -53 -386 -2
-12 18 -15 116 -18 139 -3 127 -29 92 213 -14 94 -25 177 -25 185 0 8 16 26
34 40 49 36 66 70 66 132 0 65 -23 107 -80 144 l-40 27 0 146 0 146 107 47
c59 26 109 51 110 55 1 4 -102 54 -230 110 -128 57 -434 193 -681 303 -247
110 -456 200 -465 200 -9 0 -36 -10 -61 -21z"/>
<path d="M7788 8518 c-30 -46 -50 -125 -55 -214 l-6 -91 79 -8 c154 -14 320
-73 440 -156 71 -49 181 -157 221 -216 19 -29 38 -53 42 -53 4 0 25 25 45 55
94 136 272 266 443 324 68 23 210 51 260 51 l36 0 -5 108 c-4 89 -9 117 -31
166 -21 45 -31 57 -44 53 -10 -2 -172 -73 -360 -156 l-343 -152 -77 35 c-43
19 -199 89 -348 155 -148 67 -273 121 -276 121 -4 0 -13 -10 -21 -22z"/>
<path d="M5840 5901 c-62 -19 -107 -55 -285 -231 -128 -126 -205 -194 -236
-209 -60 -28 -302 -272 -328 -331 -13 -29 -94 -118 -255 -280 -146 -147 -242
-252 -251 -274 -21 -50 -19 -139 4 -184 26 -49 175 -195 227 -222 85 -43 209
-43 294 0 19 10 125 108 235 219 184 184 241 231 285 231 6 0 10 -53 10 -134
0 -105 3 -136 15 -146 18 -15 27 -9 93 62 30 32 59 58 65 58 6 0 41 -29 78
-65 45 -44 72 -63 83 -59 14 5 16 42 18 308 1 165 2 322 2 349 l1 47 204 204
c230 230 251 260 259 371 5 85 -8 138 -51 201 -47 70 -58 74 -102 36 -38 -34
-40 -34 -91 5 -17 12 -50 29 -73 38 -45 16 -158 19 -201 6z m214 -90 c27 -14
52 -32 54 -39 4 -13 -375 -402 -392 -402 -9 0 -105 43 -141 63 -11 6 -39 21
-63 33 l-43 21 145 146 c79 80 162 157 184 172 76 50 170 53 256 6z m216 -73
c12 -27 20 -66 20 -104 0 -98 -25 -134 -238 -347 l-189 -189 -28 54 c-15 29
-39 75 -52 102 l-25 49 238 238 c132 132 242 239 247 239 4 0 17 -19 27 -42z
m-629 -411 c41 -27 79 -98 79 -148 0 -43 -32 -94 -79 -126 -47 -32 -135 -32
-181 0 -69 46 -94 142 -56 215 41 79 162 109 237 59z m-363 -128 c17 -6 33
-18 36 -27 2 -10 7 -30 11 -46 3 -17 15 -42 26 -58 12 -16 19 -33 17 -38 -2
-5 -88 -97 -193 -205 -104 -108 -191 -202 -193 -208 -1 -7 16 -30 38 -52 22
-21 40 -44 40 -50 0 -6 -11 -22 -24 -34 l-24 -22 -97 100 c-88 90 -131 122
-199 145 -17 6 21 48 229 256 265 266 263 264 333 239z m188 -228 c16 -5 41
-12 56 -15 34 -8 58 -51 58 -103 0 -36 -10 -48 -200 -238 -160 -160 -202 -197
-210 -185 -5 8 -10 23 -10 33 0 24 -26 73 -63 120 l-30 39 179 179 c98 98 182
179 185 179 3 0 19 -4 35 -9z m-721 -355 c19 -8 35 -18 35 -22 0 -4 -25 -33
-55 -65 -30 -32 -55 -62 -55 -67 0 -6 35 -44 78 -86 120 -118 163 -120 273
-10 72 71 87 72 69 2 -26 -98 -114 -158 -230 -158 -89 0 -147 30 -237 123 -89
91 -105 136 -76 206 33 81 114 112 198 77z"/>
<path d="M7615 5798 c-4 -16 -205 -1637 -205 -1661 0 -15 11 -17 94 -17 l94 0
7 63 c3 34 17 154 31 267 13 113 40 338 59 500 46 394 56 460 65 460 4 0 16
-24 28 -52 41 -107 224 -582 340 -888 67 -173 124 -323 128 -333 6 -16 18 -17
108 -15 l101 3 22 60 c12 33 67 183 123 334 55 150 111 303 124 340 85 238
179 487 186 494 10 11 15 -16 35 -183 53 -458 116 -980 121 -1012 l6 -38 105
0 105 0 -6 48 c-3 26 -17 135 -31 242 -14 107 -57 452 -95 765 -38 314 -72
585 -75 603 l-6 32 -98 0 -98 0 -228 -607 c-277 -739 -289 -769 -301 -764 -5
3 -31 61 -57 130 -26 69 -63 167 -82 216 -19 50 -50 131 -68 180 -38 98 -68
178 -214 565 -53 140 -100 261 -106 268 -6 8 -41 12 -109 12 -70 0 -100 -4
-103 -12z"/>
</g>
</svg>
